<?xml version="1.0" ?><svg id="Layer_1" style="enable-background:new 0 0 50 50;" version="1.1" viewBox="0 0 50 50" xml:space="preserve" xmlns="http://www.w3.org/2000/svg" xmlns:xlink="http://www.w3.org/1999/xlink"><style type="text/css">
	.st0{fill:#F0C4DB;}
	.st1{fill:#FF9D9C;}
	.st2{fill:#9BEAF9;}
	.st3{fill:#E9F4BC;}
	.st4{fill:#505050;}
	.st5{fill:#FEBECC;}
	.st6{fill:#FFFFFF;}
	.st7{fill:#FDE4A1;}
	.st8{fill:#FEE7B5;}
	.st9{fill:#CDF6FC;}
	.st10{fill:#F2C6DD;}
	.st11{opacity:0.1;}
</style><g><path class="st0" d="M18.84,9.63c0,11.6,9.4,21,21,21c3.24,0,6.29-0.75,9.03-2.06V3.32H19.81C19.18,5.31,18.84,7.43,18.84,9.63z"/><g><polygon class="st2" points="38.01,20.42 33.84,24.58 33.84,20.39 29.53,20.39 29.53,17.34 18.57,17.34 18.57,24.58 14.64,24.58     14.64,28.39 10.88,24.58 8.31,24.58 8.31,37.69 8.31,41.96 20.22,41.96 29.53,41.96 41.43,41.96 41.43,37.69 41.43,20.39   "/><rect class="st6" height="4.27" width="33.12" x="8.32" y="37.69"/><rect class="st1" height="3.98" width="9.31" x="20.22" y="41.96"/><polygon class="st1" points="47.88,8.7 47.88,20.39 37.98,20.39 33.84,24.58 33.84,20.39 29.53,20.39 29.53,8.7   "/><polygon class="st3" points="1.88,13.94 1.88,24.58 10.88,24.58 14.64,28.39 14.64,24.58 18.57,24.58 18.57,13.94   "/><g><circle class="st4" cx="29.09" cy="37.68" r="0.75"/><path class="st4" d="M47.88,7.95H29.53c-0.41,0-0.75,0.34-0.75,0.75v8.26h-9.46v-3.02c0-0.41-0.34-0.75-0.75-0.75H1.88     c-0.41,0-0.75,0.34-0.75,0.75v10.64c0,0.41,0.34,0.75,0.75,0.75h5.69v16.63c0,0.2,0.08,0.39,0.22,0.53     c0.14,0.14,0.33,0.22,0.53,0.22h11.16v2.48h-3.12c-0.41,0-0.75,0.34-0.75,0.75s0.34,0.75,0.75,0.75H33.4     c0.41,0,0.75-0.34,0.75-0.75s-0.34-0.75-0.75-0.75h-3.12V42.7h11.16c0.2,0,0.39-0.07,0.53-0.22c0.14-0.14,0.22-0.33,0.22-0.53     V21.14h5.69c0.41,0,0.75-0.34,0.75-0.75V8.7C48.63,8.28,48.29,7.95,47.88,7.95z M2.63,14.69h15.19v3.01c0,0,0,0.01,0,0.01     c0,0,0,0.01,0,0.01v6.11h-3.18c-0.41,0-0.75,0.34-0.75,0.75v1.99l-2.48-2.51c-0.14-0.14-0.33-0.22-0.53-0.22H2.63V14.69z      M28.78,45.18h-7.81V42.7h7.81V45.18z M40.69,36.93h-9.6c-0.41,0-0.75,0.34-0.75,0.75c0,0.42,0.34,0.75,0.75,0.75h9.6v2.77H9.07     v-0.56v-2.21h18.02c0.42,0,0.75-0.33,0.75-0.75c0-0.41-0.33-0.75-0.75-0.75H9.07V25.33h1.5l3.54,3.59     c0.14,0.15,0.34,0.22,0.53,0.22c0.1,0,0.19-0.02,0.29-0.06c0.28-0.12,0.46-0.39,0.46-0.69v-3.06h3.18c0.41,0,0.75-0.34,0.75-0.75     v-6.12h9.46v1.93c0,0.41,0.34,0.75,0.75,0.75h3.56v3.44c0,0.3,0.18,0.58,0.46,0.69c0.09,0.04,0.19,0.06,0.29,0.06     c0.2,0,0.39-0.08,0.53-0.22l3.92-3.97h2.39V36.93z M47.13,19.64h-5.67c-0.01,0-0.01,0-0.02,0s-0.01,0-0.02,0h-3.44     c-0.2,0-0.39,0.08-0.53,0.22l-2.85,2.89v-2.36c0-0.41-0.34-0.75-0.75-0.75h-3.56V9.45h16.85V19.64z"/><path class="st4" d="M4.9,17.36h10.63c0.41,0,0.75-0.34,0.75-0.75s-0.34-0.75-0.75-0.75H4.9c-0.41,0-0.75,0.34-0.75,0.75     S4.49,17.36,4.9,17.36z"/><path class="st4" d="M4.9,20h10.63c0.41,0,0.75-0.34,0.75-0.75s-0.34-0.75-0.75-0.75H4.9c-0.41,0-0.75,0.34-0.75,0.75     S4.49,20,4.9,20z"/><path class="st4" d="M12.48,21.89c0-0.41-0.34-0.75-0.75-0.75H4.9c-0.41,0-0.75,0.34-0.75,0.75s0.34,0.75,0.75,0.75h6.82     C12.14,22.64,12.48,22.31,12.48,21.89z"/><path class="st4" d="M33.38,12.81h10.63c0.41,0,0.75-0.34,0.75-0.75s-0.34-0.75-0.75-0.75H33.38c-0.41,0-0.75,0.34-0.75,0.75     S32.97,12.81,33.38,12.81z"/><path class="st4" d="M33.38,15.45h10.63c0.41,0,0.75-0.34,0.75-0.75s-0.34-0.75-0.75-0.75H33.38c-0.41,0-0.75,0.34-0.75,0.75     S32.97,15.45,33.38,15.45z"/><path class="st4" d="M33.38,18.09h6.82c0.41,0,0.75-0.34,0.75-0.75s-0.34-0.75-0.75-0.75h-6.82c-0.41,0-0.75,0.34-0.75,0.75     S32.97,18.09,33.38,18.09z"/></g></g></g></svg>